<?xml version="1.0" encoding="UTF-8" standalone="no"?>
<svg
   xmlns:dc="http://purl.org/dc/elements/1.1/"
   xmlns:cc="http://creativecommons.org/ns#"
   xmlns:rdf="http://www.w3.org/1999/02/22-rdf-syntax-ns#"
   xmlns:svg="http://www.w3.org/2000/svg"
   xmlns="http://www.w3.org/2000/svg"
   xmlns:sodipodi="http://sodipodi.sourceforge.net/DTD/sodipodi-0.dtd"
   xmlns:inkscape="http://www.inkscape.org/namespaces/inkscape"
   viewBox="0 0 960 960"
   height="960"
   width="960"
   xml:space="preserve"
   id="svg2"
   version="1.1"
   sodipodi:docname="GHS-pictogram-exclam.svg"
   inkscape:version="1.0.1 (3bc2e813f5, 2020-09-07)"><sodipodi:namedview
     pagecolor="#ffffff"
     bordercolor="#666666"
     borderopacity="1"
     objecttolerance="10"
     gridtolerance="10"
     guidetolerance="10"
     inkscape:pageopacity="0"
     inkscape:pageshadow="2"
     inkscape:window-width="1704"
     inkscape:window-height="1361"
     id="namedview73"
     showgrid="false"
     inkscape:zoom="1.05"
     inkscape:cx="480"
     inkscape:cy="480"
     inkscape:window-x="0"
     inkscape:window-y="0"
     inkscape:window-maximized="0"
     inkscape:current-layer="svg2"
     inkscape:document-rotation="0" /><metadata
     id="metadata8"><rdf:RDF><cc:Work
         rdf:about=""><dc:format>image/svg+xml</dc:format><dc:type
           rdf:resource="http://purl.org/dc/dcmitype/StillImage" /><dc:title></dc:title></cc:Work></rdf:RDF></metadata><defs
     id="defs6" /><g
     transform="matrix(1.3338724,0,0,-1.3338428,-0.194012,959.81002)"
     id="g10"><g
       transform="scale(0.1)"
       id="g12"><path
         id="path14"
         style="fill:#100f0d;fill-opacity:1;fill-rule:nonzero;stroke:none"
         d="m 3623.96,2909.18 c -220.82,0 -399.82,-189.12 -399.82,-422.44 0,-233.32 179,-422.46 399.82,-422.46 220.81,0 399.79,189.14 399.79,422.46 0,233.3 -178.98,422.44 -399.79,422.44" /><path
         id="path16"
         style="fill:#100f0d;fill-opacity:1;fill-rule:nonzero;stroke:none"
         d="m 3102.91,5120.72 c 0,-4.53 0.25,-9.03 0.52,-13.5 h -0.32 l 0.43,-2.96 c 0.84,-11.55 2.54,-22.95 5.06,-34.17 l 247.49,-1670.37 c 8.62,-142.27 125.21,-254.95 267.87,-254.95 141.83,0 257.9,111.44 267.66,252.57 l 247.06,1670.07 c 3.02,12.72 4.91,25.67 5.74,38.8 l 0.15,1.01 h -0.1 c 0.26,4.47 0.51,8.97 0.51,13.5 0,189.38 -233.28,342.91 -521.02,342.91 -287.77,0 -521.05,-153.5 -521.05,-342.91" /><path
         id="path18"
         style="fill:#ef2e32;fill-opacity:1;fill-rule:nonzero;stroke:none"
         d="M 6626.88,3598.68 C 6377.52,3349.3 3847.89,819.609 3598.52,570.242 3349.16,819.609 819.57,3349.32 570.215,3598.68 819.57,3848.03 3349.14,6377.66 3598.52,6627.04 3847.87,6377.66 6377.52,3848.03 6626.88,3598.68 Z M 0,3598.68 3598.52,0 7197.09,3598.68 3598.52,7197.25 0,3598.68" /></g></g></svg>
