<?xml version="1.0" encoding="UTF-8" standalone="no"?>
<svg
   xmlns:dc="http://purl.org/dc/elements/1.1/"
   xmlns:cc="http://creativecommons.org/ns#"
   xmlns:rdf="http://www.w3.org/1999/02/22-rdf-syntax-ns#"
   xmlns:svg="http://www.w3.org/2000/svg"
   xmlns="http://www.w3.org/2000/svg"
   xmlns:sodipodi="http://sodipodi.sourceforge.net/DTD/sodipodi-0.dtd"
   xmlns:inkscape="http://www.inkscape.org/namespaces/inkscape"
   viewBox="0 0 960 960"
   height="960"
   width="960"
   xml:space="preserve"
   id="svg2"
   version="1.1"
   sodipodi:docname="GHS-pictogram-bottle.svg"
   inkscape:version="1.0.1 (3bc2e813f5, 2020-09-07)"><sodipodi:namedview
     pagecolor="#ffffff"
     bordercolor="#666666"
     borderopacity="1"
     objecttolerance="10"
     gridtolerance="10"
     guidetolerance="10"
     inkscape:pageopacity="0"
     inkscape:pageshadow="2"
     inkscape:window-width="1704"
     inkscape:window-height="1361"
     id="namedview53"
     showgrid="false"
     inkscape:zoom="1.044997"
     inkscape:cx="480"
     inkscape:cy="480"
     inkscape:window-x="0"
     inkscape:window-y="0"
     inkscape:window-maximized="0"
     inkscape:current-layer="svg2"
     inkscape:document-rotation="0" /><metadata
     id="metadata8"><rdf:RDF><cc:Work
         rdf:about=""><dc:format>image/svg+xml</dc:format><dc:type
           rdf:resource="http://purl.org/dc/dcmitype/StillImage" /><dc:title></dc:title></cc:Work></rdf:RDF></metadata><defs
     id="defs6" /><g
     transform="matrix(1.3333333,0,0,-1.3333333,0,959.62667)"
     id="g10"><g
       transform="scale(0.1)"
       id="g12"><path
         id="path14"
         style="fill:#100f0d;fill-opacity:1;fill-rule:nonzero;stroke:none"
         d="m 1878.65,3305.76 c 52.77,-196.63 192.33,-330.02 311.73,-297.99 l 2333.95,626.41 c 73.31,19.68 121.9,97.34 136.33,199.9 l 0.05,-0.19 c 7.74,52.26 45.53,97.53 99.72,112.1 l 494.29,132.91 c 55.03,14.77 84.66,82.7 66.13,151.66 -18.48,68.93 -78.08,112.78 -133.09,98.02 l -494.29,-132.71 c -54.63,-14.68 -110.39,5.98 -143.11,47.97 l 0.05,-0.21 c -63.62,80.79 -144.16,123.16 -217.17,103.57 L 1999.29,3719.92 c -119.39,-32.12 -173.4,-217.54 -120.64,-414.16" /><path
         id="path16"
         style="fill:#ef2e32;fill-opacity:1;fill-rule:nonzero;stroke:none"
         d="M 6626.87,3598.15 C 6377.51,3348.77 3847.88,819.082 3598.52,569.699 3349.15,819.082 819.555,3348.78 570.211,3598.15 819.563,3847.84 3349.14,6378.11 3598.5,6627.48 3847.86,6378.11 6377.51,3847.84 6626.87,3598.15 Z M 0,3598.15 3598.52,-0.519531 7197.07,3598.15 3598.5,7197.7 0,3598.15" /></g></g></svg>
